<?xml version="1.0" encoding="UTF-8"?>
<!-- Created with Inkscape (http://www.inkscape.org/) -->
<svg width="32mm" height="32mm" version="1.1" viewBox="0 0 32 32" xml:space="preserve" xmlns="http://www.w3.org/2000/svg" xmlns:xlink="http://www.w3.org/1999/xlink"><defs><linearGradient id="linearGradient4" x1="67.613" x2="79.604" y1="92.781" y2="92.781" gradientTransform="translate(-57.381 -74.134)" gradientUnits="userSpaceOnUse"><stop stop-color="#fdfdfd" stop-opacity=".36364" offset="0"/><stop stop-color="#fdfdfd" offset="1"/></linearGradient></defs><g transform="matrix(1.2944 0 0 1.2504 -5.0004 -4.8109)"><g transform="rotate(-45 35.606 130)"><g transform="matrix(.5328 0 0 .50182 89.743 25.825)" fill="#c23a84"><path d="m12 0c0.5523 0 1 0.44772 1 1v1h1c0.5523 0 1 0.44772 1 1s-0.4477 1-1 1h-1v2.1343c1.1873 0.32878 2.1164 1.2334 2.6095 2.4013 1.1792-0.82885 2.4051-1.2046 3.5798-1.1479 1.628 0.07864 2.9908 0.98377 3.7931 2.3161 1.5443 2.5644 0.9712 6.4423-2.7259 9.5732l0.9143 1.8286c0.6649 1.3298-0.302 2.8944-1.7888 2.8944h-14.764c-1.4868 0-2.4538-1.5646-1.7889-2.8944l0.91428-1.8286c-3.6971-3.1309-4.2701-7.0088-2.7258-9.5732 0.80235-1.3324 2.1651-2.2375 3.7931-2.3161 1.1747-0.05673 2.4005 0.31909 3.5798 1.1479 0.49303-1.168 1.4221-2.0726 2.6094-2.4013v-2.1343h-1c-0.55229 0-1-0.44772-1-1s0.44771-1 1-1h1v-1c0-0.55228 0.4477-1 1-1zm-3.9872 10.81c-1.172-1.1183-2.2633-1.4651-3.1056-1.4245-0.90387 0.04365-1.6871 0.53784-2.1763 1.3502-0.92891 1.5426-0.85312 4.5293 2.6092 7.2645h5.1036c-0.2565-0.578-0.56315-1.2885-0.87032-2.0457-0.38012-0.937-0.76634-1.9587-1.0591-2.896-0.24374-0.7804-0.44922-1.5823-0.50142-2.2485zm5.5436 7.1902h5.1035c3.4623-2.7352 3.5381-5.7219 2.6092-7.2645-0.4892-0.81232-1.2724-1.3065-2.1763-1.3502-0.8423-0.04069-1.9336 0.30617-3.1056 1.4244-0.0522 0.6662-0.2576 1.4682-0.5014 2.2486-0.2928 0.9373-0.679 1.959-1.0591 2.896-0.3072 0.7572-0.6138 1.4677-0.8703 2.0457zm4.8256 2h-12.764l-0.99999 2h14.764zm-6.382-3.4313c0.1822-0.4209 0.3779-0.8843 0.5734-1.3662 0.3699-0.9118 0.7336-1.877 1.0034-2.7405 0.2796-0.8952 0.4232-1.5753 0.4232-1.962 0-0.0301-4e-4 -0.0599-0.0011-0.0895-0.0399-1.5313-1.0386-2.4105-1.9989-2.4105-0.9602 0-1.9589 0.87924-1.9988 2.4105-8e-4 0.0296-0.0012 0.0595-0.0012 0.0895 0 0.3867 0.1437 1.0668 0.4233 1.962 0.2697 0.8635 0.6335 1.8287 1.0034 2.7405 0.1955 0.4819 0.3912 0.9453 0.5733 1.3662z" clip-rule="evenodd" fill="#c23a84" fill-rule="evenodd"/></g><g transform="matrix(.50545 0 0 .45257 95.71 39.373)" fill="#00e6f4"><path d="m11 5c0-0.55228 0.4477-1 1-1s1 0.44772 1 1-0.4477 1-1 1-1-0.44772-1-1zm2.3272 2.6912c0.9911-0.48972 1.6728-1.5109 1.6728-2.6912 0-1.6568-1.3431-3-3-3s-3 1.3432-3 3c0 1.1803 0.68167 2.2015 1.6728 2.6912l-2.1666 5.7777-3.4403-2.2935c0.5754-0.5466 0.93415-1.3191 0.93415-2.1754 0-1.6568-1.3432-3-3-3s-3 1.3432-3 3c0 1.3768 0.92746 2.537 2.1917 2.8898l1.7775 7.1102-0.62871 2.5149c-0.31557 1.2623 0.63915 2.4851 1.9403 2.4851h13.438c1.3012 0 2.2559-1.2228 1.9403-2.4851l-0.6287-2.5149 1.7775-7.1102c1.2642-0.3528 2.1917-1.513 2.1917-2.8898 0-1.6568-1.3431-3-3-3s-3 1.3432-3 3c0 0.85629 0.3588 1.6288 0.9341 2.1754l-3.4403 2.2935zm7.6724 2.3088h4e-4c0.5523 0 1-0.44772 1-1s-0.4477-1-1-1-1 0.44772-1 1c0 0.55214 0.4475 0.99976 0.9996 1zm-17-1c0 0.55214-0.44748 0.99976-0.99956 1h-4.4e-4c-0.55228 0-1-0.44772-1-1s0.44772-1 1-1 1 0.44772 1 1zm1.2808 13 0.49999-2h12.438l0.5 2zm14.122-8.7332-1.1833 4.7332h-12.438l-1.1833-4.7332 3.8478 2.5653c0.25392 0.1692 0.57124 0.2133 0.86167 0.1196 0.29044-0.0937 0.52221-0.3148 0.62936-0.6006l2.0637-5.5031 2.0637 5.5031c0.1071 0.2858 0.3389 0.5069 0.6293 0.6006 0.2905 0.0937 0.6078 0.0496 0.8617-0.1196z" clip-rule="evenodd" fill="#00e6f4" fill-rule="evenodd"/></g><g transform="matrix(.033862 0 0 .026202 101.18 26.206)" fill="#0047f4">
	<path class="st0" d="m341.21 356.96c-30.595-48.693-33.234-83.226-33.234-83.226h-103.95s-2.639 34.533-33.242 83.226c-19.399 30.861-46.833 39.438-45 72.178 0.856 15.174 15.439 18.236 15.439 18.236h229.56s14.584-3.062 15.43-18.236c1.851-32.74-25.603-41.317-45.001-72.178z"/>
	<path class="st0" d="m256 29.717c8.213 0 14.869-6.647 14.869-14.858-1e-3 -8.203-6.657-14.859-14.869-14.859s-14.848 6.656-14.848 14.859c-1e-3 8.211 6.636 14.858 14.848 14.858z"/>
	<path class="st0" d="m207.04 203.7h103.96s23.495-23.475 21.762-64.537c-2.698-63.345-58.609-99.109-87.815-95.219 0 0 8.98 46.359 15.578 70.09 9.729 35.035-21.299 36.591-25.68 19.468-5.475-21.417-14.515-60.007-14.515-60.007-26.586 10.192-39.88 38.492-41.101 64.537-1.32 28.486 13.313 57.741 27.808 65.668z"/>
	<path class="st0" d="m174.98 257.72h162.04c6.863 0 9.148-10.861 0-16.286-9.138-5.436-18.296-12.22-18.296-21.722h-125.45c0 9.502-9.138 16.286-18.295 21.722-9.138 5.425-6.854 16.286 0 16.286z"/>
	<polygon class="st0" points="383.36 484.56 370.78 463.38 141.22 463.38 128.65 484.56 128.65 512 383.36 512"/>
</g></g><text transform="scale(1.02 .98041)" x="9.2887182" y="25.890079" fill="url(#linearGradient4)" font-family="Ebrima" font-size="28.971px" font-weight="bold" stroke-linecap="round" stroke-linejoin="round" stroke-width=".15089" style="paint-order:stroke fill markers" xml:space="preserve"><tspan x="9.2887182" y="25.890079" fill="url(#linearGradient4)" font-family="Ebrima" font-weight="bold" stroke-width=".15089">c</tspan></text></g><style type="text/css">
	.st0{fill:#000000;}
</style></svg>
